<svg xmlns="http://www.w3.org/2000/svg" width="430" height="430" style="width:100%;height:100%;transform:translate3d(0,0,0);content-visibility:visible" viewBox="0 0 430 430"><defs><clipPath id="k"><path d="M0 0h430v430H0z"/></clipPath><clipPath id="x"><path d="M0 0h430v430H0z"/></clipPath><clipPath id="f"><path d="M0 0h430v430H0z"/></clipPath><clipPath id="u"><path d="M0 0h430v430H0z"/></clipPath><clipPath id="g"><path d="M0 0h430v430H0z"/></clipPath><clipPath id="r"><path d="M0 0h430v430H0z"/></clipPath><clipPath id="h"><path d="M0 0h430v430H0z"/></clipPath><clipPath id="o"><path d="M0 0h430v430H0z"/></clipPath><clipPath id="i"><path d="M0 0h430v430H0z"/></clipPath><clipPath id="l"><path d="M0 0h430v430H0z"/></clipPath><clipPath id="j"><path d="M0 0h430v430H0z"/></clipPath><filter id="y" width="300%" height="300%" x="-100%" y="-100%"><feGaussianBlur result="filter_result_0"/></filter><filter id="w" width="300%" height="300%" x="-100%" y="-100%"><feGaussianBlur result="filter_result_0" stdDeviation="52.5 52.5"/></filter><filter id="s" width="300%" height="300%" x="-100%" y="-100%"><feGaussianBlur result="filter_result_0"/></filter><filter id="p" width="300%" height="300%" x="-100%" y="-100%"><feGaussianBlur result="filter_result_0"/></filter><filter id="m" width="300%" height="300%" x="-100%" y="-100%"><feGaussianBlur result="filter_result_0"/></filter><mask id="z" mask-type="alpha"><use xmlns:ns1="http://www.w3.org/1999/xlink" ns1:href="#a"/></mask><mask id="v" mask-type="alpha"><use xmlns:ns2="http://www.w3.org/1999/xlink" ns2:href="#b"/></mask><mask id="t" mask-type="alpha"><use xmlns:ns3="http://www.w3.org/1999/xlink" ns3:href="#c"/></mask><mask id="q" mask-type="alpha"><use xmlns:ns4="http://www.w3.org/1999/xlink" ns4:href="#d"/></mask><mask id="n" mask-type="alpha"><use xmlns:ns5="http://www.w3.org/1999/xlink" ns5:href="#e"/></mask><g id="a" fill-opacity="0" clip-path="url(#f)" style="display:none"><path class="primary" style="display:none"/><path stroke-linecap="round" stroke-linejoin="round" class="secondary" style="display:none"/><path stroke-linecap="round" stroke-linejoin="round" class="secondary" style="display:none"/></g><g id="b" fill-opacity="0" clip-path="url(#g)" style="display:block"><path stroke="#121331" stroke-width="12" d="M0-167.5c92.443 0 167.5 75.057 167.5 167.5S92.443 167.5 0 167.5-167.5 92.443-167.5 0-92.443-167.5 0-167.5z" class="primary" style="display:block" transform="translate(215 215)"/><path stroke="#08A88A" stroke-linecap="round" stroke-linejoin="round" stroke-width="12" d="M68.894 85.757C50.011 100.929 26.016 110-.041 110c-60.772 0-110-49.228-110-110s49.228-110 110-110S110.041-60.773 110.041.082c0 0 .001 45.6-67.698 45.6" class="secondary" style="display:block" transform="translate(215.354 215.314)"/><path stroke="#08A88A" stroke-linecap="round" stroke-linejoin="round" stroke-width="12" d="M46.424 45.471V-8.081c0-21.192-17.151-38.343-38.343-38.343H-8.081c-21.192 0-38.343 17.151-38.343 38.343V8.081c0 21.192 17.151 38.343 38.343 38.343 0 0 0 0 0 0h54.505v-.953" class="secondary" style="display:block" transform="translate(212.146 214.731)"/><path stroke-linecap="round" stroke-linejoin="round" class="secondary" style="display:none"/><path stroke-linecap="round" stroke-linejoin="round" class="secondary" style="display:none"/></g><g id="c" fill-opacity="0" clip-path="url(#h)" style="display:none"><path class="primary" style="display:none"/><path stroke-linecap="round" stroke-linejoin="round" class="secondary" style="display:none"/><path stroke-linecap="round" stroke-linejoin="round" class="secondary" style="display:none"/><path stroke-linecap="round" stroke-linejoin="round" class="secondary" style="display:none"/><path stroke-linecap="round" stroke-linejoin="round" class="secondary" style="display:none"/></g><g id="d" fill-opacity="0" clip-path="url(#i)" style="display:none"><path stroke-linecap="round" stroke-linejoin="round" class="secondary" style="display:none"/><path stroke-linecap="round" stroke-linejoin="round" class="secondary" style="display:none"/><path class="primary" style="display:none"/></g><g id="e" fill-opacity="0" clip-path="url(#j)" style="display:none"><path stroke-linecap="round" stroke-linejoin="round" class="secondary" style="display:none"/><path stroke-linecap="round" stroke-linejoin="round" class="secondary" style="display:none"/><path class="primary" style="display:none"/></g></defs><g clip-path="url(#k)"><g clip-path="url(#l)" filter="url(#m)" mask="url(#n)" style="display:none"><g class="design"><path class="primary"/></g><g class="design"><path class="secondary"/></g></g><g clip-path="url(#o)" filter="url(#p)" mask="url(#q)" style="display:none"><g class="design"><path class="primary"/></g><g class="design"><path class="secondary"/></g></g><g clip-path="url(#r)" filter="url(#s)" mask="url(#t)" style="display:none"><g class="design"><path class="primary"/></g><g class="design"><path class="secondary"/></g></g><g clip-path="url(#u)" mask="url(#v)" style="display:block"><g filter="url(#w)" transform="rotate(-94 238.762 -16.565) scale(2.4)"><g class="design"><path fill="#4AE0EB" d="M0-250c137.975 0 250 112.025 250 250S137.975 250 0 250-250 137.975-250 0-137.975-250 0-250z" class="primary"/></g><g class="design"><path fill="#CA5EED" d="M113.242-295.384c97.478 0 176.5 79.022 176.5 176.5s-79.022 176.5-176.5 176.5c-43.948 0-74.396-34.057-105.29-60.631-37.631-32.369-71.21-62.338-71.21-115.869 0-97.478 79.022-176.5 176.5-176.5z" class="secondary"/></g></g></g><g clip-path="url(#x)" filter="url(#y)" mask="url(#z)" style="display:none"><g class="design"><path class="primary"/></g><g class="design"><path class="secondary"/></g></g></g></svg>